<?xml version="1.0" standalone="no"?>
<!DOCTYPE svg PUBLIC "-//W3C//DTD SVG 20010904//EN"
 "http://www.w3.org/TR/2001/REC-SVG-20010904/DTD/svg10.dtd">
<svg version="1.0" xmlns="http://www.w3.org/2000/svg"
 width="200.000000pt" height="200.000000pt" viewBox="0 0 200.000000 200.000000"
 preserveAspectRatio="xMidYMid meet">
<metadata>
Created by potrace 1.11, written by Peter Selinger 2001-2013
</metadata>
<g transform="translate(0.000000,200.000000) scale(0.100000,-0.100000)"
fill="#000000" stroke="none">
<path d="M961 1506 c-11 -14 -14 -30 -9 -66 1 -9 -20 -60 -45 -113 -26 -54
-47 -101 -47 -106 0 -5 -15 -11 -32 -14 -44 -7 -308 108 -308 134 0 32 -39 69
-74 69 -56 0 -90 -42 -75 -94 15 -53 69 -73 114 -43 18 12 34 7 145 -42 113
-51 125 -59 126 -83 1 -14 4 -33 7 -42 4 -10 -17 -39 -68 -91 -68 -69 -76 -75
-96 -64 -35 18 -106 5 -138 -25 l-28 -27 -45 20 c-126 54 -153 70 -165 100
-22 59 -105 51 -118 -10 -6 -28 -3 -36 19 -56 30 -25 48 -28 74 -12 14 9 38 2
117 -33 96 -43 100 -46 110 -84 5 -21 15 -48 22 -60 10 -18 6 -30 -40 -96 -32
-46 -63 -79 -79 -86 -20 -7 -28 -17 -28 -35 0 -31 27 -60 47 -53 8 3 18 6 23
6 10 0 25 40 22 57 -2 7 20 46 48 87 l50 75 42 -3 c28 -3 54 2 74 14 l31 17
60 -43 c51 -36 60 -48 61 -75 2 -77 89 -106 143 -48 16 17 50 38 76 46 184 57
233 70 233 62 0 -5 15 -18 33 -29 30 -19 81 -21 108 -4 5 3 34 -18 65 -48 30
-29 59 -54 64 -56 6 -2 10 -14 10 -26 0 -30 18 -46 51 -46 38 0 62 26 54 59
-8 34 -34 53 -65 47 -20 -3 -37 7 -80 47 -53 51 -54 53 -55 108 0 58 -21 99
-52 99 -22 0 -26 23 -27 180 -1 139 0 149 18 154 13 3 62 -20 136 -64 l117
-70 94 -132 c52 -72 99 -145 105 -162 12 -35 49 -43 68 -14 8 14 4 23 -24 51
-19 19 -73 87 -119 152 l-85 118 30 26 c112 98 138 116 171 118 66 2 100 73
51 107 -45 32 -91 11 -102 -47 -2 -15 -17 -38 -33 -51 -15 -13 -55 -46 -88
-73 l-60 -50 -115 68 c-63 38 -115 74 -115 81 -1 49 -56 88 -95 68 -9 -6 -34
7 -75 38 -33 26 -62 49 -65 52 -3 3 -24 20 -48 39 -23 18 -39 37 -36 43 9 14
-26 48 -51 48 -13 0 -28 -6 -34 -14z m169 -167 c78 -63 100 -86 100 -105 0
-14 12 -37 27 -52 27 -26 27 -27 26 -175 -1 -165 -6 -181 -52 -146 -99 74
-298 260 -316 296 l-23 41 37 79 c21 43 44 93 52 111 8 18 21 32 31 32 10 0
62 -36 118 -81z m-66 -389 c80 -69 145 -129 145 -135 1 -5 -4 -26 -9 -45 -8
-31 -16 -37 -57 -50 -27 -7 -86 -26 -133 -40 l-84 -27 -27 28 c-28 30 -69 38
-98 20 -10 -6 -32 4 -75 35 -59 43 -60 45 -57 88 1 25 -2 54 -8 65 -10 17 -1
29 62 94 62 63 76 73 95 66 24 -9 66 3 77 21 4 6 11 10 15 8 5 -2 74 -59 154
-128z"/>
</g>
</svg>
